<?xml version="1.0" encoding="utf-8"?>
<!-- Generator: Adobe Illustrator 24.2.3, SVG Export Plug-In . SVG Version: 6.00 Build 0)  -->
<svg version="1.1" id="Layer_1" xmlns="http://www.w3.org/2000/svg" xmlns:xlink="http://www.w3.org/1999/xlink" x="0px" y="0px"
	 viewBox="0 0 20 20" style="enable-background:new 0 0 20 20;" xml:space="preserve">
<style type="text/css">
	.st0{fill:#3FD8FC;}
	.st1{fill:#AA0C10;}
</style>
<g>
	<path class="st0" d="M18.2,10.6c-0.5-0.8-1.3-1.4-2.3-1.9c-0.2-0.1-0.4-0.2-0.6-0.2l-4.4,4.4c0.5,0.1,0.8,0.2,1,0.4
		c0.2,0.1,0.3,0.3,0.3,0.5c0,0.2-0.2,0.4-0.5,0.5c-0.4,0.1-0.8,0.2-1.4,0.2c-0.3,0-0.5,0-0.8-0.1c0,0-0.1,0-0.1,0L9,14.8l-0.9-0.9
		c-0.1-0.1-0.3-0.2-0.4-0.3c-0.1-0.1-0.4-0.1-0.6-0.1h-5c-0.2,0-0.3,0.1-0.4,0.2c-0.1,0.1-0.2,0.3-0.2,0.4c0,1,0.4,1.9,1,2.7
		c0.6,0.9,1.6,1.6,2.9,2.1c1.3,0.5,2.9,0.8,4.8,0.8c1.7,0,3.2-0.3,4.5-0.8c1.3-0.5,2.4-1.2,3.1-2.2c0.8-0.9,1.1-2,1.1-3.3
		C19,12.3,18.7,11.4,18.2,10.6z"/>
	<path class="st0" d="M5.1,11.6c0.6,0.3,1.3,0.5,2.1,0.7l4.6-4.6c0,0-0.1,0-0.1,0c-0.8-0.1-1.4-0.2-1.8-0.3C9.4,7.3,9.1,7.2,9,7
		C8.8,6.9,8.7,6.7,8.7,6.6C8.7,6.3,8.8,6.2,9,6c0.2-0.1,0.5-0.2,1-0.2c0.4,0,0.7,0.1,0.9,0.2c0.2,0.1,0.4,0.2,0.5,0.3
		c0.2,0.1,0.3,0.2,0.5,0.3c0.1,0.1,0.3,0.1,0.6,0.1h0.3l0.5-0.5l0.5,0.5h3.9c0.1,0,0.3-0.1,0.4-0.2c0.1-0.1,0.2-0.3,0.2-0.4
		c0-0.6-0.2-1.2-0.6-1.8s-0.9-1.2-1.6-1.8c-0.7-0.6-1.6-1-2.6-1.3c-1-0.3-2.2-0.5-3.5-0.5c-1.6,0-3,0.3-4.2,0.8C4.6,2,3.6,2.7,3,3.6
		c-0.7,0.9-1,2-1,3.2c0,1.2,0.3,2.1,0.8,2.9C3.3,10.5,4.1,11.1,5.1,11.6z"/>
</g>
<g>
	<path class="st1" d="M17.4,10.2c-0.5-0.8-1.3-1.4-2.3-1.9c-0.2-0.1-0.4-0.2-0.6-0.2l-4.4,4.4c0.5,0.1,0.8,0.2,1,0.4
		c0.2,0.1,0.3,0.3,0.3,0.5c0,0.2-0.2,0.4-0.5,0.5c-0.4,0.1-0.8,0.2-1.4,0.2c-0.3,0-0.5,0-0.8-0.1c0,0-0.1,0-0.1,0l-0.3,0.3l-0.9-0.9
		c-0.1-0.1-0.3-0.2-0.4-0.3c-0.1-0.1-0.4-0.1-0.6-0.1h-5c-0.2,0-0.3,0.1-0.4,0.2c-0.1,0.1-0.2,0.3-0.2,0.4c0,1,0.4,1.9,1,2.7
		c0.6,0.9,1.6,1.6,2.9,2.1c1.3,0.5,2.9,0.8,4.8,0.8c1.7,0,3.2-0.3,4.5-0.8c1.3-0.5,2.4-1.2,3.1-2.2c0.8-0.9,1.1-2,1.1-3.3
		C18.2,12,17.9,11,17.4,10.2z"/>
	<path class="st1" d="M4.3,11.2c0.6,0.3,1.3,0.5,2.1,0.7L11,7.4c0,0-0.1,0-0.1,0C10.1,7.2,9.5,7.1,9.1,7C8.6,6.9,8.3,6.8,8.2,6.7
		C8,6.5,7.9,6.4,7.9,6.2C7.9,6,8,5.8,8.2,5.7c0.2-0.1,0.5-0.2,1-0.2c0.4,0,0.7,0.1,0.9,0.2c0.2,0.1,0.4,0.2,0.5,0.3
		c0.2,0.1,0.3,0.2,0.5,0.3c0.1,0.1,0.3,0.1,0.6,0.1H12l0.5-0.5L13,6.4H17c0.1,0,0.3-0.1,0.4-0.2c0.1-0.1,0.2-0.3,0.2-0.4
		c0-0.6-0.2-1.2-0.6-1.8S16,2.7,15.3,2.2c-0.7-0.6-1.6-1-2.6-1.3c-1-0.3-2.2-0.5-3.5-0.5c-1.6,0-3,0.3-4.2,0.8
		C3.8,1.6,2.8,2.3,2.2,3.2c-0.7,0.9-1,2-1,3.2c0,1.2,0.3,2.1,0.8,2.9C2.5,10.1,3.3,10.8,4.3,11.2z"/>
</g>
</svg>
