<?xml version="1.0" encoding="utf-8"?>
<svg version="1.1" id="Layer_2" xmlns="http://www.w3.org/2000/svg" xmlns:xlink="http://www.w3.org/1999/xlink" x="0px" y="0px"
	 viewBox="0 0 180 180" style="enable-background:new 0 0 180 180;" xml:space="preserve">
<style type="text/css">
	.strk1{fill:#AA0C10;}
</style>
<path class="strk1" d="M70.2,35.5c-2.6,0-4.7-2.4-4.7-5.3s2.1-5.3,4.7-5.3h40.2c1.3,0,2.6,0.6,3.4,1.7c0.8,1,1.2,2.2,1.2,3.6
	c0,2.9-2.1,5.3-4.7,5.3C110.3,35.5,70.2,35.5,70.2,35.5z"/>
<path class="strk1" d="M30.4,179.5c-13.2,0-23.9-10.1-23.9-22.6c0-0.3,0-0.6,0.1-0.9L27.9,33.8c1.2-6,6.4-10.3,12.5-10.3h6.4
	c3,0,5.5,2.5,5.5,5.5s-2.5,5.5-5.5,5.5h-6.1h-0.2c-0.8,0-1.5,0.5-1.7,1.3L17.5,157.3c0.3,6.2,6,11.2,12.9,11.2h119.2
	c6.9,0,12.7-5,12.9-11.2L141.3,35.7c-0.2-0.7-0.9-1.2-1.6-1.2h-0.2h-6.2c-3,0-5.5-2.5-5.5-5.5s2.5-5.5,5.5-5.5h6.5
	c6,0,11.2,4.3,12.4,10.2l21.3,122.2c0.1,0.3,0.1,0.6,0.1,0.9c0,12.5-10.7,22.6-23.9,22.6H30.4V179.5z"/>
<path class="strk1" d="M121.7,52.7c-2.7-0.2-4.9-2.6-4.7-5.5V34.8c0.1-12.8-9.4-23.4-21.1-23.5H84.2c-11.6,0.1-21.1,10.6-21,23.4v12.6
	c0,0.1,0,0.3,0,0.5c-0.1,2.8-2.4,5-5,5c-0.1,0-0.2,0-0.3,0c-2.7-0.2-4.9-2.6-4.7-5.5V34.7c-0.1-18.8,13.9-34.1,31-34.1h11.7
	c8.3,0,16.2,3.6,22.1,10.1c5.8,6.5,9.1,15,9.1,24.1v12.5c0,0.1,0,0.3,0,0.5c-0.1,2.8-2.4,5-5,5C122,52.7,121.8,52.7,121.7,52.7z"/>
<path class="strk1" d="M58.4,65.1C52,65,46.1,61.4,43.9,56.3c-0.5-1.1-0.5-2.3,0-3.4c0.5-1.1,1.3-2,2.4-2.4c0.6-0.2,1.1-0.3,1.7-0.3
	c1.8,0,3.5,1.1,4.2,2.8c0.6,1.5,3.3,3.2,6.2,3.2c0.2,0,0.3,0,0.4,0c2.2,0,4.2-1.3,5.1-3.3c0.6-1.8,2.3-3,4.2-3c0.5,0,1,0.1,1.4,0.2
	c2.4,0.8,3.6,3.3,2.8,5.7c-0.1,0.2-0.2,0.4-0.3,0.7c-2.3,5.3-7.5,8.7-13.3,8.7L58.4,65.1z"/>
<path class="strk1" d="M122.4,65.1c-6.4-0.1-12.3-3.7-14.5-8.8c-0.5-1.1-0.5-2.3,0-3.4c0.5-1.1,1.3-2,2.4-2.4c0.5-0.2,1.1-0.3,1.7-0.3
	c1.8,0,3.5,1.1,4.2,2.8c0.6,1.5,3.3,3.2,6.2,3.2c0.2,0,0.3,0,0.4,0c2.2,0,4.2-1.3,5.1-3.3v-0.1v-0.1c0.8-1.4,2.3-2.3,3.9-2.3
	c0.8,0,1.5,0.2,2.2,0.6c1.9,1,2.8,3.3,2.1,5.4v0.1v0.1c-2.3,5.3-7.5,8.7-13.3,8.7L122.4,65.1z"/>
</svg>
