<svg id="Layer_1" data-name="Layer 1" xmlns="http://www.w3.org/2000/svg" viewBox="0 0 216 45"><defs><style>.cls-1{fill:#3fd8fc;}.cls-2,.cls-3{fill:#fff;stroke-width:0.75px;}.cls-2{stroke:#aa0c10;}.cls-3{stroke:#202a44;}</style></defs><path class="cls-1" d="M17.5,35.61a20.55,20.55,0,0,1-7.91-1.3A10.58,10.58,0,0,1,4.92,30.9a8,8,0,0,1-1.65-4.47,1,1,0,0,1,.28-.67.92.92,0,0,1,.67-.33h8.22a2.38,2.38,0,0,1,1.06.19,6.23,6.23,0,0,1,.8.54,5.33,5.33,0,0,0,.88.54,3.61,3.61,0,0,0,1,.35,6.92,6.92,0,0,0,1.28.11,6.69,6.69,0,0,0,2.35-.33c.59-.21.89-.51.89-.88a1,1,0,0,0-.5-.87,5.48,5.48,0,0,0-1.71-.62,31.94,31.94,0,0,0-3.37-.54,21.73,21.73,0,0,1-5.92-1.6,9.1,9.1,0,0,1-3.82-3.07A8.31,8.31,0,0,1,4,14.43,8.5,8.5,0,0,1,5.67,9.24a10.81,10.81,0,0,1,4.63-3.5,17.47,17.47,0,0,1,6.89-1.26,18.08,18.08,0,0,1,5.75.84,14.06,14.06,0,0,1,4.24,2.21,10.73,10.73,0,0,1,2.64,2.9,6.42,6.42,0,0,1,.95,3,.89.89,0,0,1-.28.67.84.84,0,0,1-.63.28H21.21a2.3,2.3,0,0,1-1-.17,3.47,3.47,0,0,1-.75-.52,3.47,3.47,0,0,0-.8-.5,3.64,3.64,0,0,0-1.5-.28,3,3,0,0,0-1.57.33,1,1,0,0,0-.11,1.62,3.47,3.47,0,0,0,1.43.6,25.42,25.42,0,0,0,3,.52,25.5,25.5,0,0,1,6.94,1.67,8.2,8.2,0,0,1,3.8,3,8.74,8.74,0,0,1,1.2,4.78A8.28,8.28,0,0,1,30,30.87a11.86,11.86,0,0,1-5.12,3.56A20.45,20.45,0,0,1,17.5,35.61Z"/><path class="cls-1" d="M35.74,43.43a1.11,1.11,0,0,1-.82-.34,1.18,1.18,0,0,1-.35-.83V13.86a1.18,1.18,0,0,1,1.17-1.16h7.35a1.13,1.13,0,0,1,.82.34,1.12,1.12,0,0,1,.35.82v1.3a7.81,7.81,0,0,1,2.57-2.07,8.2,8.2,0,0,1,3.83-.83,10.94,10.94,0,0,1,3.5.54A7.78,7.78,0,0,1,57,14.53a8.62,8.62,0,0,1,2,3.09,14.93,14.93,0,0,1,.86,4.63v3.42A13.41,13.41,0,0,1,59,30.1a8.67,8.67,0,0,1-2,3.09A7.92,7.92,0,0,1,54.18,35a9.81,9.81,0,0,1-3.52.61A8.38,8.38,0,0,1,47.38,35a5.59,5.59,0,0,1-2.46-2v9.2a1.14,1.14,0,0,1-.35.83,1.09,1.09,0,0,1-.82.34ZM47.07,27.87a2.19,2.19,0,0,0,1.25-.3A1.67,1.67,0,0,0,49,26.7a6,6,0,0,0,.28-1.34,15.08,15.08,0,0,0,0-2.85A6.27,6.27,0,0,0,49,21.17a1.69,1.69,0,0,0-.63-.86A2.1,2.1,0,0,0,47.07,20a2.32,2.32,0,0,0-1.26.31,1.68,1.68,0,0,0-.67.86,4.71,4.71,0,0,0-.23,1.34c0,.63,0,1.16,0,1.58s0,1,0,1.62a2.92,2.92,0,0,0,.28,1.17,1.8,1.8,0,0,0,.69.73A2.35,2.35,0,0,0,47.07,27.87Z"/><path class="cls-1" d="M64.32,35.18A1.2,1.2,0,0,1,63.15,34V13.86a1.18,1.18,0,0,1,1.17-1.16h7.56a1.13,1.13,0,0,1,.82.34,1.07,1.07,0,0,1,.35.82v1.57a11.62,11.62,0,0,1,3.09-2,9.24,9.24,0,0,1,3.66-.73h2.07a1.13,1.13,0,0,1,.82.34,1.12,1.12,0,0,1,.35.82v6.75a1.18,1.18,0,0,1-1.17,1.16H76.29a2.3,2.3,0,0,0-2.59,2,2.22,2.22,0,0,0,0,.63V34a1.19,1.19,0,0,1-1.17,1.17Z"/><path class="cls-1" d="M99.46,35.18a16.63,16.63,0,0,1-5.55-.85,7.57,7.57,0,0,1-3.85-2.9,9.75,9.75,0,0,1-1.4-5.58V20.26H85.24a1.11,1.11,0,0,1-.82-.34,1.14,1.14,0,0,1-.35-.82V13.86a1.18,1.18,0,0,1,1.17-1.16h3.42v-7a1.18,1.18,0,0,1,1.16-1.17h7.56A1.2,1.2,0,0,1,98.55,5.7v7.05H104a1.13,1.13,0,0,1,.82.34,1.11,1.11,0,0,1,.34.82v5.24a1.09,1.09,0,0,1-.34.82,1.13,1.13,0,0,1-.82.34H98.56v4.76A2.54,2.54,0,0,0,99,26.65a1.69,1.69,0,0,0,1.41.58h4a1.18,1.18,0,0,1,1.17,1.17v5.66a1.2,1.2,0,0,1-1.17,1.12Z"/><path class="cls-1" d="M120.91,35.61a18.32,18.32,0,0,1-7.18-1.18,10.34,10.34,0,0,1-4.35-3.27,7.59,7.59,0,0,1-1.56-4.24.94.94,0,0,1,.28-.63,1,1,0,0,1,.67-.28h5.45a1.67,1.67,0,0,1,.93.22,2.07,2.07,0,0,1,.58.56,5,5,0,0,0,1,1.25,4.56,4.56,0,0,0,1.66,1,7.63,7.63,0,0,0,2.51.36,7.38,7.38,0,0,0,3.78-.77A2.38,2.38,0,0,0,126,26.51a2,2,0,0,0-.69-1.6,6.37,6.37,0,0,0-2.23-1.1,38.1,38.1,0,0,0-4.09-1,24.56,24.56,0,0,1-5.6-1.8,8.62,8.62,0,0,1-3.52-2.89,7.86,7.86,0,0,1-1.21-4.48,7.94,7.94,0,0,1,1.49-4.71,10.06,10.06,0,0,1,4.17-3.24,15.92,15.92,0,0,1,6.36-1.17,16.11,16.11,0,0,1,5.25.78,11.89,11.89,0,0,1,3.83,2.08,9.84,9.84,0,0,1,2.36,2.74,6.33,6.33,0,0,1,.84,2.83,1,1,0,0,1-.24.63.81.81,0,0,1-.67.28H126.3a1.8,1.8,0,0,1-.82-.17,1.61,1.61,0,0,1-.6-.56,3,3,0,0,0-1.35-1.7,5.36,5.36,0,0,0-2.88-.71,5.52,5.52,0,0,0-3,.67,2.26,2.26,0,0,0-1,2,2.17,2.17,0,0,0,.58,1.51,4.59,4.59,0,0,0,2,1.13,30.81,30.81,0,0,0,3.74,1,28.69,28.69,0,0,1,6.35,1.84,8.12,8.12,0,0,1,3.57,2.85A7.82,7.82,0,0,1,134,26.15a7.87,7.87,0,0,1-1.69,5.06,10.72,10.72,0,0,1-4.65,3.22A18.2,18.2,0,0,1,120.91,35.61Z"/><path class="cls-1" d="M138.89,35.18a1,1,0,0,1-.77-.33,1,1,0,0,1-.31-.75V5.56a1,1,0,0,1,.92-1.08h5.7a1,1,0,0,1,1.08.92.43.43,0,0,1,0,.16V15.2a8.88,8.88,0,0,1,2.87-2.14,9.36,9.36,0,0,1,4-.8,8.92,8.92,0,0,1,4.43,1.17,7.82,7.82,0,0,1,3.09,3.28A11.55,11.55,0,0,1,161,22.07v12A1.08,1.08,0,0,1,160,35.18h-5.57a1.11,1.11,0,0,1-1.08-1.08V22.29a4.56,4.56,0,0,0-1-3.13,3.57,3.57,0,0,0-2.83-1.1,3.9,3.9,0,0,0-2.9,1.1,4.34,4.34,0,0,0-1.08,3.13V34.1a1.08,1.08,0,0,1-1.08,1.08Z"/><path class="cls-1" d="M176.55,35.61a14.31,14.31,0,0,1-6.12-1.18,8.57,8.57,0,0,1-3.8-3.35,11.06,11.06,0,0,1-1.49-5.21V21.94a10.63,10.63,0,0,1,1.55-5.23,9,9,0,0,1,3.87-3.28,16.07,16.07,0,0,1,12,0,9,9,0,0,1,3.87,3.33A10.64,10.64,0,0,1,188,22v3.93a11.25,11.25,0,0,1-1.49,5.21,8.44,8.44,0,0,1-3.79,3.3A14.31,14.31,0,0,1,176.55,35.61Zm0-5.27a3.29,3.29,0,0,0,2.83-1.17,6.36,6.36,0,0,0,1-3.5V22.21a6.41,6.41,0,0,0-1-3.48,3.91,3.91,0,0,0-5.53-.09l-.09.09a5.92,5.92,0,0,0-1,3.48c0,.43,0,1,0,1.73a16.85,16.85,0,0,0,0,1.73,5.94,5.94,0,0,0,1,3.5A3.35,3.35,0,0,0,176.55,30.34Z"/><path class="cls-1" d="M193.38,43.43a1,1,0,0,1-.78-.32,1.12,1.12,0,0,1-.3-.76V13.78a1,1,0,0,1,.92-1.08h5.05a1.09,1.09,0,0,1,.75.3,1,1,0,0,1,.33.78v1.55A8.69,8.69,0,0,1,202,13.15a8.42,8.42,0,0,1,4-.89,10.25,10.25,0,0,1,3.8.67,7.85,7.85,0,0,1,2.83,2,8.9,8.9,0,0,1,1.84,3.16,14.52,14.52,0,0,1,.74,4.28v3.2a14.53,14.53,0,0,1-.74,4.19,9.23,9.23,0,0,1-1.81,3.16,8,8,0,0,1-2.84,2,9.6,9.6,0,0,1-3.82.71,8.44,8.44,0,0,1-3.7-.76,6.86,6.86,0,0,1-2.61-2.14v9.6a1.07,1.07,0,0,1-.31.76,1,1,0,0,1-.77.32Zm10.33-13.57a3.7,3.7,0,0,0,2.29-.61,3.26,3.26,0,0,0,1.19-1.64,8.55,8.55,0,0,0,.46-2.29,24,24,0,0,0,0-2.68,8.18,8.18,0,0,0-.46-2.29A3.33,3.33,0,0,0,206,18.7a4.54,4.54,0,0,0-4.54,0,3.66,3.66,0,0,0-1.25,1.63,7.26,7.26,0,0,0-.47,2.16v3.24a5.1,5.1,0,0,0,.47,2,3.67,3.67,0,0,0,1.3,1.51,3.83,3.83,0,0,0,2.23.58Z"/><path class="cls-2" d="M15.65,33.6a20.75,20.75,0,0,1-7.91-1.3,10.73,10.73,0,0,1-4.67-3.42,8,8,0,0,1-1.64-4.45,1,1,0,0,1,.28-.67.92.92,0,0,1,.67-.33H10.6a2.26,2.26,0,0,1,1,.19,4.49,4.49,0,0,1,.8.54,9.18,9.18,0,0,0,.89.54,3.31,3.31,0,0,0,1,.35,6.81,6.81,0,0,0,1.27.11,6.75,6.75,0,0,0,2.36-.33c.59-.21.89-.51.89-.88a1,1,0,0,0-.5-.87,5.56,5.56,0,0,0-1.62-.65c-.81-.18-1.93-.36-3.37-.54a21.21,21.21,0,0,1-5.94-1.57,9,9,0,0,1-3.85-3.09,8.26,8.26,0,0,1-1.36-4.8A8.56,8.56,0,0,1,3.83,7.22a11,11,0,0,1,4.63-3.5,17.65,17.65,0,0,1,6.92-1.29,18.08,18.08,0,0,1,5.75.84,13.88,13.88,0,0,1,4.25,2.25A10.63,10.63,0,0,1,28,8.43a6.42,6.42,0,0,1,.95,3,1,1,0,0,1-.28.67.84.84,0,0,1-.63.28H19.38a2.3,2.3,0,0,1-1-.17,3.53,3.53,0,0,1-.76-.52,2.9,2.9,0,0,0-.8-.5,3.37,3.37,0,0,0-1.44-.29,3,3,0,0,0-1.58.32,1,1,0,0,0-.32,1.38.88.88,0,0,0,.22.25,3.38,3.38,0,0,0,1.42.6,27.66,27.66,0,0,0,3,.52,25.12,25.12,0,0,1,6.94,1.66,8.22,8.22,0,0,1,3.81,3A8.69,8.69,0,0,1,30,23.43a8.31,8.31,0,0,1-1.88,5.45A11.92,11.92,0,0,1,23,32.4,20.4,20.4,0,0,1,15.65,33.6Z"/><path class="cls-2" d="M33.9,41.43a1.2,1.2,0,0,1-1.17-1.17V11.85a1.21,1.21,0,0,1,1.17-1.17h7.35a1.14,1.14,0,0,1,.82.35,1.11,1.11,0,0,1,.34.82v1.3A7.77,7.77,0,0,1,45,11.07a8.15,8.15,0,0,1,3.82-.82,11,11,0,0,1,3.51.54,7.52,7.52,0,0,1,2.83,1.73,8.41,8.41,0,0,1,2,3.09A14.94,14.94,0,0,1,58,20.24v3.41a13.41,13.41,0,0,1-.82,4.43,8.71,8.71,0,0,1-2,3.1A7.93,7.93,0,0,1,52.38,33a10.09,10.09,0,0,1-3.53.61A8.41,8.41,0,0,1,45.57,33a5.61,5.61,0,0,1-2.47-2V40.2a1.18,1.18,0,0,1-1.16,1.17ZM45.22,25.86a2.15,2.15,0,0,0,1.26-.3,1.67,1.67,0,0,0,.63-.87,6,6,0,0,0,.27-1.34,17,17,0,0,0,0-2.85,7,7,0,0,0-.28-1.34,1.71,1.71,0,0,0-.63-.87,2.22,2.22,0,0,0-1.26-.3,2.38,2.38,0,0,0-1.25.3,1.62,1.62,0,0,0-.67.87,5.18,5.18,0,0,0-.24,1.34v3.2a3.3,3.3,0,0,0,.33,1.16,1.67,1.67,0,0,0,.7.74A2.38,2.38,0,0,0,45.22,25.86Z"/><path class="cls-2" d="M62.47,33.16A1.16,1.16,0,0,1,61.31,32V11.85a1.18,1.18,0,0,1,1.16-1.17H70a1.2,1.2,0,0,1,1.17,1.17v1.51a12,12,0,0,1,3.09-1.93A9.38,9.38,0,0,1,78,10.69H80a1.14,1.14,0,0,1,.82.35,1.11,1.11,0,0,1,.34.82v6.75a1.13,1.13,0,0,1-.34.82,1.09,1.09,0,0,1-.82.34H74.45a2.68,2.68,0,0,0-2,.65,2.71,2.71,0,0,0-.64,1.95V32a1.18,1.18,0,0,1-1.17,1.16Z"/><path class="cls-2" d="M97.62,33.16a16.88,16.88,0,0,1-5.55-.84,7.5,7.5,0,0,1-3.85-2.89,9.76,9.76,0,0,1-1.41-5.58v-5.6H83.38a1.2,1.2,0,0,1-1.17-1.17V11.85a1.21,1.21,0,0,1,1.17-1.17h3.41v-7a1.18,1.18,0,0,1,.35-.83A1.11,1.11,0,0,1,88,2.43h7.57A1.16,1.16,0,0,1,96.71,3.6v7h5.45a1.2,1.2,0,0,1,1.22,1.18v5.3a1.19,1.19,0,0,1-1.17,1.17h-5.5V23a2.53,2.53,0,0,0,.46,1.58,1.68,1.68,0,0,0,1.4.59h3.94a1.16,1.16,0,0,1,1.16,1.16h0V32a1.16,1.16,0,0,1-1.16,1.16H97.62Z"/><path class="cls-3" d="M119.07,33.6a18,18,0,0,1-7.18-1.24,10.28,10.28,0,0,1-4.32-3.22A7.53,7.53,0,0,1,106,24.91a.92.92,0,0,1,.28-.63A1,1,0,0,1,107,24h5.42a1.75,1.75,0,0,1,.93.21,2.61,2.61,0,0,1,.58.57,5.29,5.29,0,0,0,1,1.25,4.6,4.6,0,0,0,1.67,1,9.15,9.15,0,0,0,6.29-.41,2.35,2.35,0,0,0,1.27-2.19,2,2,0,0,0-.69-1.6,6.5,6.5,0,0,0-2.22-1.1,38.1,38.1,0,0,0-4.09-1,24.56,24.56,0,0,1-5.6-1.8A8.46,8.46,0,0,1,108,16a7.86,7.86,0,0,1-1.21-4.48,7.88,7.88,0,0,1,1.49-4.71,9.84,9.84,0,0,1,4.17-3.24,15.93,15.93,0,0,1,6.36-1.18,16.11,16.11,0,0,1,5.25.78,12,12,0,0,1,3.83,2.07A9.82,9.82,0,0,1,130.24,8a6,6,0,0,1,.84,2.83,1,1,0,0,1-.23.63.84.84,0,0,1-.67.28h-5.71a1.69,1.69,0,0,1-.82-.18A1.57,1.57,0,0,1,123,11a2.93,2.93,0,0,0-1.36-1.6,5.23,5.23,0,0,0-2.87-.72,5.61,5.61,0,0,0-3,.67,2.29,2.29,0,0,0-1,2.06,2.2,2.2,0,0,0,.57,1.49,4.65,4.65,0,0,0,2,1.13,34.79,34.79,0,0,0,3.73,1,27.85,27.85,0,0,1,6.27,1.83A8.12,8.12,0,0,1,131,19.74a7.89,7.89,0,0,1,1.14,4.39,7.91,7.91,0,0,1-1.68,5.06,10.63,10.63,0,0,1-4.58,3.24A18.34,18.34,0,0,1,119.07,33.6Z"/><path class="cls-3" d="M137.05,33.16a1,1,0,0,1-.78-.32,1.12,1.12,0,0,1-.3-.76V3.55a1,1,0,0,1,.87-1.11h5.74a1,1,0,0,1,1.08.92.43.43,0,0,1,0,.16v9.64A8.68,8.68,0,0,1,146.54,11a9.36,9.36,0,0,1,4-.8A8.94,8.94,0,0,1,155,11.33a7.84,7.84,0,0,1,3.09,3.29A11.55,11.55,0,0,1,159.23,20v12.1a1.07,1.07,0,0,1-.31.76,1,1,0,0,1-.77.32h-5.58a1,1,0,0,1-.76-.32,1.07,1.07,0,0,1-.32-.76V20.28a4.56,4.56,0,0,0-1-3.13A3.58,3.58,0,0,0,147.66,16a3.86,3.86,0,0,0-2.89,1.11,4.29,4.29,0,0,0-1.09,3.13v11.8a1.07,1.07,0,0,1-.3.76,1,1,0,0,1-.78.32Z"/><path class="cls-3" d="M174.71,33.6a14.15,14.15,0,0,1-6.12-1.17,8.6,8.6,0,0,1-3.81-3.35,11.37,11.37,0,0,1-1.49-5.21V20a10.74,10.74,0,0,1,1.56-5.23,9,9,0,0,1,3.87-3.29,16.07,16.07,0,0,1,12,0,9.19,9.19,0,0,1,3.87,3.33A10.52,10.52,0,0,1,186.14,20c0,.55.05,1.19.05,1.92s0,1.39-.05,2a11.06,11.06,0,0,1-1.49,5.21,8.58,8.58,0,0,1-3.8,3.35A14.36,14.36,0,0,1,174.71,33.6Zm0-5.28a3.32,3.32,0,0,0,2.83-1.17,6.28,6.28,0,0,0,1-3.5c0-.43.05-1,.05-1.73a16.85,16.85,0,0,0-.05-1.73,6.41,6.41,0,0,0-1-3.48,3.91,3.91,0,0,0-5.53-.09l-.09.09a6.06,6.06,0,0,0-1,3.48v3.46a5.94,5.94,0,0,0,1,3.5A3.35,3.35,0,0,0,174.71,28.32Z"/><path class="cls-3" d="M191.57,41.43a1,1,0,0,1-.78-.33,1.09,1.09,0,0,1-.3-.75V11.76a1,1,0,0,1,1.08-1.08h4.88a1.07,1.07,0,0,1,.76.31,1,1,0,0,1,.32.77v1.56a8.69,8.69,0,0,1,2.68-2.18,8.42,8.42,0,0,1,4-.89,10.11,10.11,0,0,1,3.81.67,7.85,7.85,0,0,1,2.83,2,8.86,8.86,0,0,1,1.84,3.15,14.56,14.56,0,0,1,.73,4.28c0,.58.05,1.11.05,1.6s0,1-.05,1.6a14.25,14.25,0,0,1-.73,4.2,8.73,8.73,0,0,1-1.82,3.15,7.85,7.85,0,0,1-2.83,2,9.49,9.49,0,0,1-3.83.72,8.4,8.4,0,0,1-3.69-.76,7,7,0,0,1-2.62-2.14v9.6a1.08,1.08,0,0,1-1.08,1.08ZM201.9,27.85a3.78,3.78,0,0,0,2.29-.6,3.44,3.44,0,0,0,1.19-1.69,8.16,8.16,0,0,0,.45-2.3,20,20,0,0,0,0-2.68,8.16,8.16,0,0,0-.45-2.29,3.37,3.37,0,0,0-1.19-1.64,4.46,4.46,0,0,0-4.54,0,3.68,3.68,0,0,0-1.27,1.62,7.6,7.6,0,0,0-.48,2.16V23.7a5.33,5.33,0,0,0,.48,2,3.71,3.71,0,0,0,1.29,1.51,3.84,3.84,0,0,0,2.23.59Z"/></svg>