<?xml version="1.0" encoding="utf-8"?>
<svg version="1.1" id="Canva_1" xmlns="http://www.w3.org/2000/svg" xmlns:xlink="http://www.w3.org/1999/xlink" x="0px" y="0px"
	 viewBox="0 0 216 50" style="enable-background:new 0 0 216 50;" xml:space="preserve">
<style type="text/css">
	.st0{fill:#3FD8FC;}
	.st1{fill:#AA0C10;}
	.st2{fill:#202A44;}
</style>
<g>
	<g>
		<path class="st0" d="M17.1,38c-3.2,0-5.8-0.4-7.9-1.3s-3.6-2-4.7-3.4c-1-1.4-1.6-2.9-1.6-4.5c0-0.3,0.1-0.5,0.3-0.7
			c0.2-0.2,0.4-0.3,0.7-0.3h8.2c0.5,0,0.8,0.1,1.1,0.2c0.2,0.1,0.5,0.3,0.8,0.5c0.3,0.2,0.6,0.4,0.9,0.5c0.3,0.2,0.6,0.3,1,0.3
			c0.4,0.1,0.8,0.1,1.3,0.1c1,0,1.8-0.1,2.4-0.3c0.6-0.2,0.9-0.5,0.9-0.9c0-0.3-0.2-0.6-0.5-0.9c-0.3-0.2-0.9-0.4-1.7-0.6
			c-0.8-0.2-1.9-0.4-3.4-0.5c-2.3-0.3-4.3-0.8-5.9-1.6c-1.7-0.7-3-1.8-3.9-3.1s-1.4-2.9-1.4-4.8c0-2,0.6-3.7,1.7-5.2
			c1.1-1.5,2.7-2.7,4.6-3.5c2-0.8,4.3-1.3,6.9-1.3c2.2,0,4.1,0.3,5.8,0.8c1.7,0.6,3.1,1.3,4.2,2.2c1.2,0.9,2,1.9,2.6,2.9s0.9,2,1,3
			c0,0.3-0.1,0.5-0.3,0.7c-0.2,0.2-0.4,0.3-0.6,0.3h-8.6c-0.4,0-0.7-0.1-1-0.2c-0.2-0.1-0.5-0.3-0.8-0.5c-0.1-0.1-0.4-0.3-0.8-0.5
			c-0.4-0.2-0.9-0.3-1.5-0.3c-0.7,0-1.2,0.1-1.6,0.3c-0.3,0.2-0.5,0.5-0.5,0.9c0,0.3,0.1,0.5,0.4,0.7c0.3,0.2,0.7,0.4,1.4,0.6
			c0.7,0.2,1.7,0.3,3,0.5c2.9,0.3,5.2,0.9,6.9,1.7c1.7,0.8,3,1.8,3.8,3c0.8,1.3,1.2,2.8,1.2,4.7c0,2.1-0.6,3.9-1.9,5.4
			c-1.3,1.5-3,2.7-5.1,3.5S19.9,38,17.1,38z"/>
		<path class="st0" d="M35.4,45.7c-0.3,0-0.6-0.1-0.8-0.3c-0.2-0.2-0.3-0.5-0.3-0.8V16.2c0-0.3,0.1-0.6,0.3-0.8
			c0.2-0.2,0.5-0.3,0.8-0.3h7.3c0.3,0,0.6,0.1,0.8,0.3c0.2,0.2,0.3,0.5,0.3,0.8v1.3c0.7-0.8,1.5-1.5,2.6-2.1
			c1.1-0.5,2.3-0.8,3.8-0.8c1.3,0,2.4,0.2,3.5,0.5c1.1,0.4,2,0.9,2.8,1.7c0.8,0.8,1.5,1.8,2,3.1c0.5,1.3,0.8,2.8,0.9,4.6
			c0,0.6,0,1.2,0,1.7c0,0.5,0,1.1,0,1.7c-0.1,1.7-0.3,3.2-0.8,4.4c-0.5,1.3-1.1,2.3-2,3.1c-0.8,0.8-1.8,1.4-2.9,1.8
			c-1.1,0.4-2.3,0.6-3.5,0.6c-1.2,0-2.3-0.2-3.3-0.6c-1-0.4-1.8-1.1-2.5-2v9.2c0,0.3-0.1,0.6-0.3,0.8c-0.2,0.2-0.5,0.3-0.8,0.3H35.4
			z M46.7,30.2c0.5,0,1-0.1,1.3-0.3s0.5-0.5,0.6-0.9c0.1-0.4,0.2-0.8,0.3-1.3c0.1-1,0.1-1.9,0-2.9c-0.1-0.5-0.2-1-0.3-1.3
			c-0.1-0.4-0.3-0.7-0.6-0.9c-0.3-0.2-0.7-0.3-1.3-0.3c-0.5,0-0.9,0.1-1.3,0.3c-0.3,0.2-0.5,0.5-0.7,0.9c-0.1,0.4-0.2,0.8-0.2,1.3
			c0,0.6,0,1.2,0,1.6c0,0.4,0,1,0,1.6c0,0.5,0.1,0.9,0.3,1.2c0.2,0.3,0.4,0.6,0.7,0.7S46.2,30.2,46.7,30.2z"/>
		<path class="st0" d="M63.9,37.5c-0.3,0-0.6-0.1-0.8-0.3c-0.2-0.2-0.3-0.5-0.3-0.8V16.2c0-0.3,0.1-0.6,0.3-0.8
			c0.2-0.2,0.5-0.3,0.8-0.3h7.6c0.3,0,0.6,0.1,0.8,0.3c0.2,0.2,0.3,0.5,0.3,0.8v1.5c0.9-0.8,2-1.5,3.1-1.9c1.1-0.5,2.4-0.7,3.7-0.7
			h2.1c0.3,0,0.6,0.1,0.8,0.3c0.2,0.2,0.3,0.5,0.3,0.8V23c0,0.3-0.1,0.6-0.3,0.8c-0.2,0.2-0.5,0.3-0.8,0.3h-5.6
			c-0.9,0-1.5,0.2-1.9,0.6c-0.4,0.4-0.6,1.1-0.6,1.9v9.6c0,0.3-0.1,0.6-0.3,0.8c-0.2,0.2-0.5,0.3-0.8,0.3H63.9z"/>
		<path class="st0" d="M99.1,37.5c-2.1,0-3.9-0.3-5.6-0.8c-1.6-0.6-2.9-1.5-3.8-2.9c-0.9-1.4-1.4-3.2-1.4-5.6v-5.6h-3.4
			c-0.3,0-0.6-0.1-0.8-0.3c-0.2-0.2-0.3-0.5-0.3-0.8v-5.2c0-0.3,0.1-0.6,0.3-0.8c0.2-0.2,0.5-0.3,0.8-0.3h3.4V8
			c0-0.3,0.1-0.6,0.3-0.8c0.2-0.2,0.5-0.3,0.8-0.3H97c0.3,0,0.6,0.1,0.8,0.3c0.2,0.2,0.3,0.5,0.3,0.8v7h5.4c0.3,0,0.6,0.1,0.8,0.3
			c0.2,0.2,0.3,0.5,0.3,0.8v5.2c0,0.3-0.1,0.6-0.3,0.8c-0.2,0.2-0.5,0.3-0.8,0.3h-5.4v4.8c0,0.7,0.2,1.2,0.5,1.6
			c0.3,0.4,0.8,0.6,1.4,0.6h3.9c0.3,0,0.6,0.1,0.8,0.3c0.2,0.2,0.3,0.5,0.3,0.8v5.7c0,0.3-0.1,0.6-0.3,0.8c-0.2,0.2-0.5,0.3-0.8,0.3
			H99.1z"/>
		<path class="st0" d="M120.5,38c-2.9,0-5.3-0.4-7.2-1.2s-3.3-1.9-4.3-3.2c-1-1.3-1.5-2.7-1.6-4.2c0-0.2,0.1-0.4,0.3-0.6
			c0.2-0.2,0.4-0.3,0.7-0.3h5.4c0.4,0,0.7,0.1,0.9,0.2c0.2,0.1,0.4,0.3,0.6,0.6c0.2,0.4,0.6,0.9,1,1.3c0.4,0.4,1,0.7,1.7,1
			c0.7,0.2,1.5,0.4,2.5,0.4c1.7,0,2.9-0.3,3.8-0.8c0.8-0.5,1.3-1.2,1.3-2.1c0-0.7-0.2-1.2-0.7-1.6c-0.5-0.4-1.2-0.8-2.2-1.1
			c-1-0.3-2.4-0.7-4.1-1c-2.2-0.5-4.1-1.1-5.6-1.8s-2.7-1.7-3.5-2.9c-0.8-1.2-1.2-2.7-1.2-4.5c0-1.8,0.5-3.3,1.5-4.7
			c1-1.4,2.4-2.5,4.2-3.2c1.8-0.8,3.9-1.2,6.4-1.2c2,0,3.7,0.3,5.3,0.8c1.5,0.5,2.8,1.2,3.8,2.1c1,0.9,1.8,1.8,2.4,2.7
			c0.5,1,0.8,1.9,0.8,2.8c0,0.2-0.1,0.4-0.2,0.6c-0.2,0.2-0.4,0.3-0.7,0.3h-5.7c-0.3,0-0.6-0.1-0.8-0.2c-0.2-0.1-0.4-0.3-0.6-0.6
			c-0.2-0.6-0.6-1.2-1.4-1.7s-1.7-0.7-2.9-0.7c-1.3,0-2.3,0.2-3,0.7c-0.7,0.4-1.1,1.1-1.1,2.1c0,0.6,0.2,1.1,0.6,1.5
			c0.4,0.4,1,0.8,1.9,1.1c0.9,0.3,2.2,0.6,3.7,1c2.6,0.5,4.7,1.1,6.4,1.8c1.6,0.7,2.8,1.7,3.6,2.9s1.1,2.6,1.1,4.4
			c0,2-0.6,3.6-1.7,5.1c-1.1,1.4-2.7,2.5-4.6,3.3S123.1,38,120.5,38z"/>
		<path class="st0" d="M138.5,37.5c-0.3,0-0.6-0.1-0.8-0.3c-0.2-0.2-0.3-0.5-0.3-0.8V7.9c0-0.3,0.1-0.6,0.3-0.8
			c0.2-0.2,0.5-0.3,0.8-0.3h5.5c0.3,0,0.6,0.1,0.8,0.3c0.2,0.2,0.3,0.5,0.3,0.8v9.6c0.8-0.9,1.7-1.6,2.9-2.1c1.1-0.5,2.5-0.8,4-0.8
			c1.7,0,3.2,0.4,4.5,1.1c1.3,0.8,2.3,1.8,3.1,3.3c0.7,1.4,1.1,3.2,1.1,5.4v12.1c0,0.3-0.1,0.5-0.3,0.8c-0.2,0.2-0.5,0.3-0.8,0.3
			H154c-0.3,0-0.5-0.1-0.8-0.3s-0.3-0.5-0.3-0.8V24.6c0-1.4-0.3-2.4-1-3.1c-0.6-0.7-1.6-1.1-2.8-1.1c-1.2,0-2.2,0.4-2.9,1.1
			c-0.7,0.7-1.1,1.8-1.1,3.1v11.8c0,0.3-0.1,0.5-0.3,0.8c-0.2,0.2-0.5,0.3-0.8,0.3H138.5z"/>
		<path class="st0" d="M176.2,38c-2.4,0-4.5-0.4-6.1-1.2s-2.9-1.9-3.8-3.4c-0.9-1.5-1.4-3.2-1.5-5.2c0-0.6,0-1.2,0-2s0-1.4,0-1.9
			c0.1-2,0.6-3.8,1.6-5.2c0.9-1.4,2.2-2.6,3.9-3.3s3.7-1.2,6-1.2c2.4,0,4.4,0.4,6,1.2s2.9,1.9,3.9,3.3c0.9,1.4,1.4,3.2,1.6,5.2
			c0,0.5,0,1.2,0,1.9s0,1.4,0,2c-0.1,2-0.6,3.8-1.5,5.2c-0.9,1.5-2.1,2.6-3.8,3.4S178.6,38,176.2,38z M176.2,32.7
			c1.3,0,2.2-0.4,2.8-1.2s0.9-1.9,1-3.5c0-0.4,0-1,0-1.7c0-0.7,0-1.3,0-1.7c-0.1-1.5-0.4-2.7-1-3.5c-0.6-0.8-1.5-1.2-2.8-1.2
			c-1.2,0-2.2,0.4-2.8,1.2c-0.6,0.8-1,2-1,3.5c0,0.4,0,1,0,1.7c0,0.7,0,1.3,0,1.7c0.1,1.6,0.4,2.7,1,3.5
			C174,32.3,174.9,32.7,176.2,32.7z"/>
		<path class="st0" d="M193,45.7c-0.3,0-0.6-0.1-0.8-0.3c-0.2-0.2-0.3-0.5-0.3-0.8V16.1c0-0.3,0.1-0.6,0.3-0.8
			c0.2-0.2,0.5-0.3,0.8-0.3h4.9c0.3,0,0.5,0.1,0.8,0.3c0.2,0.2,0.3,0.5,0.3,0.8v1.6c0.7-0.9,1.6-1.6,2.7-2.2c1.1-0.6,2.4-0.9,4-0.9
			c1.4,0,2.7,0.2,3.8,0.7c1.1,0.4,2,1.1,2.8,2c0.8,0.9,1.4,1.9,1.8,3.2s0.7,2.7,0.7,4.3c0,0.6,0,1.1,0,1.6c0,0.5,0,1,0,1.6
			c-0.1,1.6-0.3,3-0.7,4.2c-0.4,1.2-1,2.3-1.8,3.2s-1.7,1.5-2.8,2c-1.1,0.5-2.4,0.7-3.8,0.7c-1.4,0-2.6-0.3-3.7-0.8
			c-1.1-0.5-1.9-1.2-2.6-2.1v9.6c0,0.3-0.1,0.5-0.3,0.8c-0.2,0.2-0.5,0.3-0.8,0.3H193z M203.4,32.2c1,0,1.7-0.2,2.3-0.6
			c0.5-0.4,0.9-1,1.2-1.6c0.2-0.7,0.4-1.5,0.5-2.3c0.1-0.9,0.1-1.8,0-2.7c-0.1-0.8-0.2-1.6-0.5-2.3c-0.2-0.7-0.6-1.2-1.2-1.6
			c-0.5-0.4-1.3-0.6-2.3-0.6c-0.9,0-1.7,0.2-2.2,0.6c-0.6,0.4-1,1-1.3,1.6c-0.3,0.7-0.4,1.4-0.5,2.2c0,0.5,0,1.1,0,1.6
			c0,0.5,0,1.1,0,1.6c0,0.7,0.2,1.4,0.5,2c0.3,0.6,0.7,1.1,1.3,1.5C201.7,32,202.5,32.2,203.4,32.2z"/>
	</g>
	<g>
		<path class="st1" d="M15.3,35.4c-3.2,0-5.8-0.4-7.9-1.3s-3.6-2-4.7-3.4c-1-1.4-1.6-2.9-1.6-4.5c0-0.3,0.1-0.5,0.3-0.7
			c0.2-0.2,0.4-0.3,0.7-0.3h8.2c0.5,0,0.8,0.1,1.1,0.2c0.2,0.1,0.5,0.3,0.8,0.5c0.3,0.2,0.6,0.4,0.9,0.5c0.3,0.2,0.6,0.3,1,0.3
			c0.4,0.1,0.8,0.1,1.3,0.1c1,0,1.8-0.1,2.4-0.3c0.6-0.2,0.9-0.5,0.9-0.9c0-0.3-0.2-0.6-0.5-0.9c-0.3-0.2-0.9-0.4-1.7-0.6
			c-0.8-0.2-1.9-0.4-3.4-0.5c-2.3-0.3-4.3-0.8-5.9-1.6c-1.7-0.7-3-1.8-3.9-3.1s-1.4-2.9-1.4-4.8c0-2,0.6-3.7,1.7-5.2
			c1.1-1.5,2.7-2.7,4.6-3.5c2-0.8,4.3-1.3,6.9-1.3c2.2,0,4.1,0.3,5.8,0.8c1.7,0.6,3.1,1.3,4.2,2.2c1.2,0.9,2,1.9,2.6,2.9s0.9,2,1,3
			c0,0.3-0.1,0.5-0.3,0.7c-0.2,0.2-0.4,0.3-0.6,0.3H19c-0.4,0-0.7-0.1-1-0.2c-0.2-0.1-0.5-0.3-0.8-0.5c-0.1-0.1-0.4-0.3-0.8-0.5
			c-0.4-0.2-0.9-0.3-1.5-0.3c-0.7,0-1.2,0.1-1.6,0.3c-0.3,0.2-0.5,0.5-0.5,0.9c0,0.3,0.1,0.5,0.4,0.7c0.3,0.2,0.7,0.4,1.4,0.6
			c0.7,0.2,1.7,0.3,3,0.5c2.9,0.3,5.2,0.9,6.9,1.7c1.7,0.8,3,1.8,3.8,3c0.8,1.3,1.2,2.8,1.2,4.7c0,2.1-0.6,3.9-1.9,5.4
			c-1.3,1.5-3,2.7-5.1,3.5S18,35.4,15.3,35.4z"/>
		<path class="st1" d="M33.5,43.2c-0.3,0-0.6-0.1-0.8-0.3c-0.2-0.2-0.3-0.5-0.3-0.8V13.6c0-0.3,0.1-0.6,0.3-0.8
			c0.2-0.2,0.5-0.3,0.8-0.3h7.3c0.3,0,0.6,0.1,0.8,0.3c0.2,0.2,0.3,0.5,0.3,0.8v1.3c0.7-0.8,1.5-1.5,2.6-2.1
			c1.1-0.5,2.3-0.8,3.8-0.8c1.3,0,2.4,0.2,3.5,0.5c1.1,0.4,2,0.9,2.8,1.7c0.8,0.8,1.5,1.8,2,3.1c0.5,1.3,0.8,2.8,0.9,4.6
			c0,0.6,0,1.2,0,1.7c0,0.5,0,1.1,0,1.7c-0.1,1.7-0.3,3.2-0.8,4.4c-0.5,1.3-1.1,2.3-2,3.1C54,33.8,53,34.4,52,34.8
			c-1.1,0.4-2.3,0.6-3.5,0.6c-1.2,0-2.3-0.2-3.3-0.6c-1-0.4-1.8-1.1-2.5-2V42c0,0.3-0.1,0.6-0.3,0.8c-0.2,0.2-0.5,0.3-0.8,0.3H33.5z
			 M44.8,27.6c0.5,0,1-0.1,1.3-0.3s0.5-0.5,0.6-0.9c0.1-0.4,0.2-0.8,0.3-1.3c0.1-1,0.1-1.9,0-2.9c-0.1-0.5-0.2-1-0.3-1.3
			c-0.1-0.4-0.3-0.7-0.6-0.9c-0.3-0.2-0.7-0.3-1.3-0.3c-0.5,0-0.9,0.1-1.3,0.3c-0.3,0.2-0.5,0.5-0.7,0.9c-0.1,0.4-0.2,0.8-0.2,1.3
			c0,0.6,0,1.2,0,1.6c0,0.4,0,1,0,1.6c0,0.5,0.1,0.9,0.3,1.2c0.2,0.3,0.4,0.6,0.7,0.7S44.4,27.6,44.8,27.6z"/>
		<path class="st1" d="M62.1,35c-0.3,0-0.6-0.1-0.8-0.3c-0.2-0.2-0.3-0.5-0.3-0.8V13.6c0-0.3,0.1-0.6,0.3-0.8
			c0.2-0.2,0.5-0.3,0.8-0.3h7.6c0.3,0,0.6,0.1,0.8,0.3c0.2,0.2,0.3,0.5,0.3,0.8v1.5c0.9-0.8,2-1.5,3.1-1.9c1.1-0.5,2.4-0.7,3.7-0.7
			h2.1c0.3,0,0.6,0.1,0.8,0.3c0.2,0.2,0.3,0.5,0.3,0.8v6.7c0,0.3-0.1,0.6-0.3,0.8c-0.2,0.2-0.5,0.3-0.8,0.3h-5.6
			c-0.9,0-1.5,0.2-1.9,0.6c-0.4,0.4-0.6,1.1-0.6,1.9v9.6c0,0.3-0.1,0.6-0.3,0.8c-0.2,0.2-0.5,0.3-0.8,0.3H62.1z"/>
		<path class="st1" d="M97.2,35c-2.1,0-3.9-0.3-5.6-0.8c-1.6-0.6-2.9-1.5-3.8-2.9c-0.9-1.4-1.4-3.2-1.4-5.6V20H83
			c-0.3,0-0.6-0.1-0.8-0.3c-0.2-0.2-0.3-0.5-0.3-0.8v-5.2c0-0.3,0.1-0.6,0.3-0.8c0.2-0.2,0.5-0.3,0.8-0.3h3.4v-7
			c0-0.3,0.1-0.6,0.3-0.8c0.2-0.2,0.5-0.3,0.8-0.3h7.6c0.3,0,0.6,0.1,0.8,0.3c0.2,0.2,0.3,0.5,0.3,0.8v7h5.4c0.3,0,0.6,0.1,0.8,0.3
			c0.2,0.2,0.3,0.5,0.3,0.8v5.2c0,0.3-0.1,0.6-0.3,0.8c-0.2,0.2-0.5,0.3-0.8,0.3h-5.4v4.8c0,0.7,0.2,1.2,0.5,1.6
			c0.3,0.4,0.8,0.6,1.4,0.6h3.9c0.3,0,0.6,0.1,0.8,0.3c0.2,0.2,0.3,0.5,0.3,0.8v5.7c0,0.3-0.1,0.6-0.3,0.8c-0.2,0.2-0.5,0.3-0.8,0.3
			H97.2z"/>
		<path class="st2" d="M118.7,35.4c-2.9,0-5.3-0.4-7.2-1.2s-3.3-1.9-4.3-3.2c-1-1.3-1.5-2.7-1.6-4.2c0-0.2,0.1-0.4,0.3-0.6
			c0.2-0.2,0.4-0.3,0.7-0.3h5.4c0.4,0,0.7,0.1,0.9,0.2c0.2,0.1,0.4,0.3,0.6,0.6c0.2,0.4,0.6,0.9,1,1.3c0.4,0.4,1,0.7,1.7,1
			c0.7,0.2,1.5,0.4,2.5,0.4c1.7,0,2.9-0.3,3.8-0.8c0.8-0.5,1.3-1.2,1.3-2.1c0-0.7-0.2-1.2-0.7-1.6c-0.5-0.4-1.2-0.8-2.2-1.1
			c-1-0.3-2.4-0.7-4.1-1c-2.2-0.5-4.1-1.1-5.6-1.8s-2.7-1.7-3.5-2.9c-0.8-1.2-1.2-2.7-1.2-4.5c0-1.8,0.5-3.3,1.5-4.7
			s2.4-2.5,4.2-3.2c1.8-0.8,3.9-1.2,6.4-1.2c2,0,3.7,0.3,5.3,0.8c1.5,0.5,2.8,1.2,3.8,2.1c1,0.9,1.8,1.8,2.4,2.7
			c0.5,1,0.8,1.9,0.8,2.8c0,0.2-0.1,0.4-0.2,0.6c-0.2,0.2-0.4,0.3-0.7,0.3h-5.7c-0.3,0-0.6-0.1-0.8-0.2c-0.2-0.1-0.4-0.3-0.6-0.6
			c-0.2-0.6-0.6-1.2-1.4-1.7s-1.7-0.7-2.9-0.7c-1.3,0-2.3,0.2-3,0.7c-0.7,0.4-1.1,1.1-1.1,2.1c0,0.6,0.2,1.1,0.6,1.5
			c0.4,0.4,1,0.8,1.9,1.1c0.9,0.3,2.2,0.6,3.7,1c2.6,0.5,4.7,1.1,6.4,1.8c1.6,0.7,2.8,1.7,3.6,2.9s1.1,2.6,1.1,4.4
			c0,2-0.6,3.6-1.7,5.1c-1.1,1.4-2.7,2.5-4.6,3.3S121.3,35.4,118.7,35.4z"/>
		<path class="st2" d="M136.7,35c-0.3,0-0.6-0.1-0.8-0.3c-0.2-0.2-0.3-0.5-0.3-0.8V5.3c0-0.3,0.1-0.6,0.3-0.8
			c0.2-0.2,0.5-0.3,0.8-0.3h5.5c0.3,0,0.6,0.1,0.8,0.3c0.2,0.2,0.3,0.5,0.3,0.8V15c0.8-0.9,1.7-1.6,2.9-2.1c1.1-0.5,2.5-0.8,4-0.8
			c1.7,0,3.2,0.4,4.5,1.1c1.3,0.8,2.3,1.8,3.1,3.3c0.7,1.4,1.1,3.2,1.1,5.4v12.1c0,0.3-0.1,0.5-0.3,0.8c-0.2,0.2-0.5,0.3-0.8,0.3
			h-5.6c-0.3,0-0.5-0.1-0.8-0.3s-0.3-0.5-0.3-0.8V22.1c0-1.4-0.3-2.4-1-3.1c-0.6-0.7-1.6-1.1-2.8-1.1c-1.2,0-2.2,0.4-2.9,1.1
			c-0.7,0.7-1.1,1.8-1.1,3.1v11.8c0,0.3-0.1,0.5-0.3,0.8c-0.2,0.2-0.5,0.3-0.8,0.3H136.7z"/>
		<path class="st2" d="M174.3,35.4c-2.4,0-4.5-0.4-6.1-1.2s-2.9-1.9-3.8-3.4c-0.9-1.5-1.4-3.2-1.5-5.2c0-0.6,0-1.2,0-2s0-1.4,0-1.9
			c0.1-2,0.6-3.8,1.6-5.2c0.9-1.4,2.2-2.6,3.9-3.3s3.7-1.2,6-1.2c2.4,0,4.4,0.4,6,1.2s2.9,1.9,3.9,3.3c0.9,1.4,1.4,3.2,1.6,5.2
			c0,0.5,0,1.2,0,1.9s0,1.4,0,2c-0.1,2-0.6,3.8-1.5,5.2c-0.9,1.5-2.1,2.6-3.8,3.4S176.8,35.4,174.3,35.4z M174.3,30.1
			c1.3,0,2.2-0.4,2.8-1.2s0.9-1.9,1-3.5c0-0.4,0-1,0-1.7c0-0.7,0-1.3,0-1.7c-0.1-1.5-0.4-2.7-1-3.5c-0.6-0.8-1.5-1.2-2.8-1.2
			c-1.2,0-2.2,0.4-2.8,1.2c-0.6,0.8-1,2-1,3.5c0,0.4,0,1,0,1.7c0,0.7,0,1.3,0,1.7c0.1,1.6,0.4,2.7,1,3.5
			C172.2,29.7,173.1,30.1,174.3,30.1z"/>
		<path class="st2" d="M191.2,43.2c-0.3,0-0.6-0.1-0.8-0.3c-0.2-0.2-0.3-0.5-0.3-0.8V13.6c0-0.3,0.1-0.6,0.3-0.8
			c0.2-0.2,0.5-0.3,0.8-0.3h4.9c0.3,0,0.5,0.1,0.8,0.3c0.2,0.2,0.3,0.5,0.3,0.8v1.6c0.7-0.9,1.6-1.6,2.7-2.2c1.1-0.6,2.4-0.9,4-0.9
			c1.4,0,2.7,0.2,3.8,0.7c1.1,0.4,2,1.1,2.8,2c0.8,0.9,1.4,1.9,1.8,3.2s0.7,2.7,0.7,4.3c0,0.6,0,1.1,0,1.6c0,0.5,0,1,0,1.6
			c-0.1,1.6-0.3,3-0.7,4.2c-0.4,1.2-1,2.3-1.8,3.2s-1.7,1.5-2.8,2c-1.1,0.5-2.4,0.7-3.8,0.7c-1.4,0-2.6-0.3-3.7-0.8
			c-1.1-0.5-1.9-1.2-2.6-2.1v9.6c0,0.3-0.1,0.5-0.3,0.8c-0.2,0.2-0.5,0.3-0.8,0.3H191.2z M201.5,29.6c1,0,1.7-0.2,2.3-0.6
			c0.5-0.4,0.9-1,1.2-1.6c0.2-0.7,0.4-1.5,0.5-2.3c0.1-0.9,0.1-1.8,0-2.7c-0.1-0.8-0.2-1.6-0.5-2.3c-0.2-0.7-0.6-1.2-1.2-1.6
			c-0.5-0.4-1.3-0.6-2.3-0.6c-0.9,0-1.7,0.2-2.2,0.6c-0.6,0.4-1,1-1.3,1.6c-0.3,0.7-0.4,1.4-0.5,2.2c0,0.5,0,1.1,0,1.6
			c0,0.5,0,1.1,0,1.6c0,0.7,0.2,1.4,0.5,2c0.3,0.6,0.7,1.1,1.3,1.5C199.9,29.4,200.6,29.6,201.5,29.6z"/>
	</g>
</g>
</svg>
